<mxfile host="app.diagrams.net" modified="2022-02-03T15:27:11.689Z" agent="5.0 (X11)" etag="Hygq25gznUvU2jnVspBc" version="16.2.6" type="github">
  <diagram id="JH0xN6-QRe8qDJujxhSj" name="Page-1">
    <mxGraphModel dx="2062" dy="1120" grid="1" gridSize="10" guides="1" tooltips="1" connect="1" arrows="1" fold="1" page="1" pageScale="1" pageWidth="1100" pageHeight="850" math="0" shadow="0">
      <root>
        <mxCell id="0" />
        <mxCell id="1" parent="0" />
        <mxCell id="0EOeT-tZLeTq_Orqgovl-2" value="&lt;div style=&quot;font-size: 18px&quot;&gt;Backend&lt;/div&gt;&lt;div&gt;&lt;br&gt;&lt;/div&gt;" style="aspect=fixed;perimeter=ellipsePerimeter;html=1;align=center;shadow=0;dashed=0;fontColor=#4277BB;labelBackgroundColor=#ffffff;fontSize=12;spacingTop=3;image;image=img/lib/ibm/infrastructure/mobile_backend.svg;" vertex="1" parent="1">
          <mxGeometry x="483" y="320" width="135" height="135" as="geometry" />
        </mxCell>
        <mxCell id="0EOeT-tZLeTq_Orqgovl-4" value="&lt;font style=&quot;font-size: 18px&quot; color=&quot;#7EA6E0&quot;&gt;Frontend&lt;/font&gt;" style="verticalLabelPosition=bottom;html=1;verticalAlign=top;align=center;strokeColor=none;fillColor=#00BEF2;shape=mxgraph.azure.laptop;pointerEvents=1;" vertex="1" parent="1">
          <mxGeometry x="445" y="40" width="190" height="130" as="geometry" />
        </mxCell>
        <mxCell id="0EOeT-tZLeTq_Orqgovl-6" value="" style="endArrow=classic;startArrow=classic;html=1;rounded=0;entryX=0.5;entryY=1;entryDx=0;entryDy=0;entryPerimeter=0;" edge="1" parent="1" target="0EOeT-tZLeTq_Orqgovl-4">
          <mxGeometry width="50" height="50" relative="1" as="geometry">
            <mxPoint x="540" y="358" as="sourcePoint" />
            <mxPoint x="590" y="308" as="targetPoint" />
          </mxGeometry>
        </mxCell>
        <mxCell id="0EOeT-tZLeTq_Orqgovl-7" value="&lt;font style=&quot;font-size: 18px&quot;&gt;Location Data&lt;/font&gt;" style="sketch=0;outlineConnect=0;fontColor=#232F3E;gradientColor=none;strokeColor=#232F3E;fillColor=#ffffff;dashed=0;verticalLabelPosition=bottom;verticalAlign=top;align=center;html=1;fontSize=12;fontStyle=0;aspect=fixed;shape=mxgraph.aws4.resourceIcon;resIcon=mxgraph.aws4.container_1;" vertex="1" parent="1">
          <mxGeometry x="80" y="690" width="110" height="110" as="geometry" />
        </mxCell>
        <mxCell id="0EOeT-tZLeTq_Orqgovl-8" value="&lt;font style=&quot;font-size: 18px&quot;&gt;Person&lt;/font&gt;" style="sketch=0;outlineConnect=0;fontColor=#232F3E;gradientColor=none;strokeColor=#232F3E;fillColor=#ffffff;dashed=0;verticalLabelPosition=bottom;verticalAlign=top;align=center;html=1;fontSize=12;fontStyle=0;aspect=fixed;shape=mxgraph.aws4.resourceIcon;resIcon=mxgraph.aws4.container_1;" vertex="1" parent="1">
          <mxGeometry x="495.5" y="680" width="110" height="110" as="geometry" />
        </mxCell>
        <mxCell id="0EOeT-tZLeTq_Orqgovl-9" value="Connections" style="sketch=0;outlineConnect=0;fontColor=#232F3E;gradientColor=none;strokeColor=#232F3E;fillColor=#ffffff;dashed=0;verticalLabelPosition=bottom;verticalAlign=top;align=center;html=1;fontSize=12;fontStyle=0;aspect=fixed;shape=mxgraph.aws4.resourceIcon;resIcon=mxgraph.aws4.container_1;" vertex="1" parent="1">
          <mxGeometry x="900" y="680" width="110" height="110" as="geometry" />
        </mxCell>
        <mxCell id="0EOeT-tZLeTq_Orqgovl-12" value="" style="endArrow=classic;startArrow=classic;html=1;rounded=0;fontSize=18;fontColor=#7EA6E0;entryX=0;entryY=0.5;entryDx=0;entryDy=0;" edge="1" parent="1" source="0EOeT-tZLeTq_Orqgovl-7" target="0EOeT-tZLeTq_Orqgovl-2">
          <mxGeometry width="50" height="50" relative="1" as="geometry">
            <mxPoint x="760" y="570" as="sourcePoint" />
            <mxPoint x="810" y="520" as="targetPoint" />
          </mxGeometry>
        </mxCell>
        <mxCell id="0EOeT-tZLeTq_Orqgovl-15" value="gRPC" style="edgeLabel;html=1;align=center;verticalAlign=middle;resizable=0;points=[];fontSize=18;fontColor=#7EA6E0;" vertex="1" connectable="0" parent="0EOeT-tZLeTq_Orqgovl-12">
          <mxGeometry x="-0.3367" y="3" relative="1" as="geometry">
            <mxPoint as="offset" />
          </mxGeometry>
        </mxCell>
        <mxCell id="0EOeT-tZLeTq_Orqgovl-13" value="" style="endArrow=classic;startArrow=classic;html=1;rounded=0;fontSize=18;fontColor=#7EA6E0;" edge="1" parent="1" source="0EOeT-tZLeTq_Orqgovl-8" target="0EOeT-tZLeTq_Orqgovl-2">
          <mxGeometry width="50" height="50" relative="1" as="geometry">
            <mxPoint x="760" y="570" as="sourcePoint" />
            <mxPoint x="810" y="520" as="targetPoint" />
          </mxGeometry>
        </mxCell>
        <mxCell id="0EOeT-tZLeTq_Orqgovl-16" value="REST API" style="edgeLabel;html=1;align=center;verticalAlign=middle;resizable=0;points=[];fontSize=18;fontColor=#7EA6E0;" vertex="1" connectable="0" parent="0EOeT-tZLeTq_Orqgovl-13">
          <mxGeometry x="-0.1022" y="-1" relative="1" as="geometry">
            <mxPoint x="1" as="offset" />
          </mxGeometry>
        </mxCell>
        <mxCell id="0EOeT-tZLeTq_Orqgovl-14" value="" style="endArrow=classic;startArrow=classic;html=1;rounded=0;fontSize=18;fontColor=#7EA6E0;entryX=1;entryY=0.5;entryDx=0;entryDy=0;" edge="1" parent="1" source="0EOeT-tZLeTq_Orqgovl-9" target="0EOeT-tZLeTq_Orqgovl-2">
          <mxGeometry width="50" height="50" relative="1" as="geometry">
            <mxPoint x="760" y="570" as="sourcePoint" />
            <mxPoint x="810" y="520" as="targetPoint" />
          </mxGeometry>
        </mxCell>
        <mxCell id="0EOeT-tZLeTq_Orqgovl-17" value="Kafka" style="edgeLabel;html=1;align=center;verticalAlign=middle;resizable=0;points=[];fontSize=18;fontColor=#7EA6E0;" vertex="1" connectable="0" parent="0EOeT-tZLeTq_Orqgovl-14">
          <mxGeometry x="-0.3348" y="2" relative="1" as="geometry">
            <mxPoint as="offset" />
          </mxGeometry>
        </mxCell>
      </root>
    </mxGraphModel>
  </diagram>
</mxfile>
